<svg xmlns="http://www.w3.org/2000/svg" viewBox="0 0 640 480" role="img" aria-labelledby="title desc">
  <title id="title">Flag of the CIS</title>
  <desc id="desc">Blue field with stylized white and gold CIS emblem in the center.</desc>
  <rect width="640" height="480" fill="#2f5fb7"/>

  <!-- Stylized CIS emblem -->
  <g transform="translate(320 240)">
    <path d="M0-96c-34 0-56 28-56 62 0 44 35 88 56 108 21-20 56-64 56-108 0-34-22-62-56-62z" fill="#fff"/>
    <path d="M-128 44c0-55 40-98 86-106-29 20-47 54-47 90 0 42 20 84 50 118-52-10-89-54-89-102z" fill="#fff"/>
    <path d="M128 44c0-55-40-98-86-106 29 20 47 54 47 90 0 42-20 84-50 118 52-10 89-54 89-102z" fill="#fff"/>
    <circle cx="0" cy="-8" r="23" fill="#ffcc33"/>
  </g>
</svg>
